<svg version="1.2" baseProfile="tiny" xmlns="http://www.w3.org/2000/svg" viewBox="0 0 392 392"><path fill="none" d="M165.2 297.5c73 0 132.4-59.4 132.4-132.3S238.2 32.8 165.2 32.8 32.8 92.2 32.8 165.2s59.4 132.3 132.4 132.3z"/><path d="M165.2 330.4c39.8 0 76.2-14 104.6-37.4l94.2 94.2c3.2 3.2 7.4 4.8 11.5 4.8h.1c4.2 0 8.3-1.6 11.5-4.8 3.2-3.2 4.8-7.3 4.8-11.5v-.1c0-4.2-1.6-8.3-4.8-11.5L293 269.9c23.4-28.5 37.4-65 37.4-104.7C330.4 74 256.4 0 165.2 0 73.9 0 0 74 0 165.2s73.9 165.2 165.2 165.2zm0-297.6c73 0 132.4 59.4 132.4 132.4s-59.4 132.3-132.4 132.3S32.8 238.1 32.8 165.2 92.2 32.8 165.2 32.8z"/></svg>